<svg width="32768" height="655" viewBox="0 0 32768 655" fill="none" xmlns="http://www.w3.org/2000/svg">
<path fill-rule="evenodd" clip-rule="evenodd" d="M0 467.489L555.618 186.996H1111.24L1666.85 0L2222.47 373.991L2778.09 186.996L3333.71 467.489V654.485H2778.09H2222.47H1666.85H1111.24H555.618H0V467.489Z" fill="#14213D"/>
<path fill-rule="evenodd" clip-rule="evenodd" d="M3049.17 467.489L3604.79 186.996H4160.4L4716.02 0L5271.64 373.991L5827.26 186.996L6382.88 467.489V654.485H5827.26H5271.64H4716.02H4160.4H3604.79H3049.17V467.489Z" fill="#14213D"/>
<path fill-rule="evenodd" clip-rule="evenodd" d="M6382.87 467.489L6938.49 186.996H7494.11L8049.73 0L8605.35 373.991L9160.97 186.996L9716.58 467.489V654.485H9160.97H8605.35H8049.73H7494.11H6938.49H6382.87V467.489Z" fill="#14213D"/>
<path fill-rule="evenodd" clip-rule="evenodd" d="M9716.58 467.489L10272.2 186.996H10827.8L11383.4 0L11939.1 373.991L12494.7 186.996L13050.3 467.489V654.485H12494.7H11939.1H11383.4H10827.8H10272.2H9716.58V467.489Z" fill="#14213D"/>
<path fill-rule="evenodd" clip-rule="evenodd" d="M13050.3 467.489L13605.9 186.996H14161.5L14717.1 0L15272.8 373.991L15828.4 186.996L16384 467.489V654.485H15828.4H15272.8H14717.1H14161.5H13605.9H13050.3V467.489Z" fill="#14213D"/>
<path fill-rule="evenodd" clip-rule="evenodd" d="M0 654.485V510.951L582.721 441.025L1024.27 227.565L1365.15 441.025L1706.58 334.295L2048 510.951V654.485H1706.58H1365.15H1024.27H682.846H341.423H0Z" fill="#296852"/>
<path fill-rule="evenodd" clip-rule="evenodd" d="M0 654.485V510.951L582.721 441.025L1024.27 227.565L1365.15 441.025L1706.58 334.295L2048 510.951V654.485H1706.58H1365.15H1024.27H682.846H341.423H0Z" fill="#296852"/>
<path fill-rule="evenodd" clip-rule="evenodd" d="M0 654.485V510.951L582.721 441.025L1024.27 227.565L1365.15 441.025L1706.58 334.295L2048 510.951V654.485H1706.58H1365.15H1024.27H682.846H341.423H0Z" fill="#025337"/>
<path fill-rule="evenodd" clip-rule="evenodd" d="M2048 654.485V510.951L2630.72 441.025L3072.27 227.565L3413.15 441.025L3754.58 334.295L4096 510.951V654.485H3754.58H3413.15H3072.27H2730.85H2389.42H2048Z" fill="#025337"/>
<path fill-rule="evenodd" clip-rule="evenodd" d="M8192 654.485V510.951L8774.72 441.025L9216.27 227.565L9557.15 441.025L9898.58 334.295L10240 510.951V654.485H9898.58H9557.15H9216.27H8874.85H8533.42H8192Z" fill="#025337"/>
<path fill-rule="evenodd" clip-rule="evenodd" d="M10240 654.485V510.951L10822.7 441.025L11264.3 227.565L11605.2 441.025L11946.6 334.295L12288 510.951V654.485H11946.6H11605.2H11264.3H10922.8H10581.4H10240Z" fill="#025337"/>
<path fill-rule="evenodd" clip-rule="evenodd" d="M12288 654.485V510.951L12870.7 441.025L13312.3 227.565L13653.2 441.025L13994.6 334.295L14336 510.951V654.485H13994.6H13653.2H13312.3H12970.8H12629.4H12288Z" fill="#025337"/>
<path fill-rule="evenodd" clip-rule="evenodd" d="M14336 654.485V510.951L14918.7 441.025L15360.3 227.565L15701.2 441.025L16042.6 334.295L16384 510.951V654.485H16042.6H15701.2H15360.3H15018.8H14677.4H14336Z" fill="#025337"/>
<path fill-rule="evenodd" clip-rule="evenodd" d="M4096 654.485V510.951L4678.72 441.025L5120.27 227.565L5461.15 441.025L5802.58 334.295L6144 510.951V654.485H5802.58H5461.15H5120.27H4778.85H4437.42H4096Z" fill="#025337"/>
<path fill-rule="evenodd" clip-rule="evenodd" d="M6144 654.485V510.951L6726.72 441.025L7168.27 227.565L7509.15 441.025L7850.58 334.295L8192 510.951V654.485H7850.58H7509.15H7168.27H6826.85H6485.42H6144Z" fill="#025337"/>
<path fill-rule="evenodd" clip-rule="evenodd" d="M16384 467.489L16939.6 186.996H17495.2L18050.9 0L18606.5 373.991L19162.1 186.996L19717.7 467.489V654.485H19162.1H18606.5H18050.9H17495.2H16939.6H16384V467.489Z" fill="#14213D"/>
<path fill-rule="evenodd" clip-rule="evenodd" d="M19433.2 467.489L19988.8 186.996H20544.4L21100 0L21655.6 373.991L22211.3 186.996L22766.9 467.489V654.485H22211.3H21655.6H21100H20544.4H19988.8H19433.2V467.489Z" fill="#14213D"/>
<path fill-rule="evenodd" clip-rule="evenodd" d="M22766.9 467.489L23322.5 186.996H23878.1L24433.7 0L24989.3 373.991L25545 186.996L26100.6 467.489V654.485H25545H24989.3H24433.7H23878.1H23322.5H22766.9V467.489Z" fill="#14213D"/>
<path fill-rule="evenodd" clip-rule="evenodd" d="M26100.6 467.489L26656.2 186.996H27211.8L27767.4 0L28323.1 373.991L28878.7 186.996L29434.3 467.489V654.485H28878.7H28323.1H27767.4H27211.8H26656.2H26100.6V467.489Z" fill="#14213D"/>
<path fill-rule="evenodd" clip-rule="evenodd" d="M29434.3 467.489L29989.9 186.996H30545.5L31101.1 0L31656.8 373.991L32212.4 186.996L32768 467.489V654.485H32212.4H31656.8H31101.1H30545.5H29989.9H29434.3V467.489Z" fill="#14213D"/>
<path fill-rule="evenodd" clip-rule="evenodd" d="M16384 654.485V510.951L16966.7 441.025L17408.3 227.565L17749.2 441.025L18090.6 334.295L18432 510.951V654.485H18090.6H17749.2H17408.3H17066.8H16725.4H16384Z" fill="#296852"/>
<path fill-rule="evenodd" clip-rule="evenodd" d="M16384 654.485V510.951L16966.7 441.025L17408.3 227.565L17749.2 441.025L18090.6 334.295L18432 510.951V654.485H18090.6H17749.2H17408.3H17066.8H16725.4H16384Z" fill="#296852"/>
<path fill-rule="evenodd" clip-rule="evenodd" d="M16384 654.485V510.951L16966.7 441.025L17408.3 227.565L17749.2 441.025L18090.6 334.295L18432 510.951V654.485H18090.6H17749.2H17408.3H17066.8H16725.4H16384Z" fill="#025337"/>
<path fill-rule="evenodd" clip-rule="evenodd" d="M18432 654.485V510.951L19014.7 441.025L19456.3 227.565L19797.2 441.025L20138.6 334.295L20480 510.951V654.485H20138.6H19797.2H19456.3H19114.8H18773.4H18432Z" fill="#025337"/>
<path fill-rule="evenodd" clip-rule="evenodd" d="M24576 654.485V510.951L25158.7 441.025L25600.3 227.565L25941.2 441.025L26282.6 334.295L26624 510.951V654.485H26282.6H25941.2H25600.3H25258.8H24917.4H24576Z" fill="#025337"/>
<path fill-rule="evenodd" clip-rule="evenodd" d="M26624 654.485V510.951L27206.7 441.025L27648.3 227.565L27989.2 441.025L28330.6 334.295L28672 510.951V654.485H28330.6H27989.2H27648.3H27306.8H26965.4H26624Z" fill="#025337"/>
<path fill-rule="evenodd" clip-rule="evenodd" d="M28672 654.485V510.951L29254.7 441.025L29696.3 227.565L30037.2 441.025L30378.6 334.295L30720 510.951V654.485H30378.6H30037.2H29696.3H29354.8H29013.4H28672Z" fill="#025337"/>
<path fill-rule="evenodd" clip-rule="evenodd" d="M30720 654.485V510.951L31302.7 441.025L31744.3 227.565L32085.2 441.025L32426.6 334.295L32768 510.951V654.485H32426.6H32085.2H31744.3H31402.8H31061.4H30720Z" fill="#025337"/>
<path fill-rule="evenodd" clip-rule="evenodd" d="M20480 654.485V510.951L21062.7 441.025L21504.3 227.565L21845.2 441.025L22186.6 334.295L22528 510.951V654.485H22186.6H21845.2H21504.3H21162.8H20821.4H20480Z" fill="#025337"/>
<path fill-rule="evenodd" clip-rule="evenodd" d="M22528 654.485V510.951L23110.7 441.025L23552.3 227.565L23893.2 441.025L24234.6 334.295L24576 510.951V654.485H24234.6H23893.2H23552.3H23210.8H22869.4H22528Z" fill="#025337"/>
</svg>
