<svg width="32768" height="650" viewBox="0 0 32768 650" fill="none" xmlns="http://www.w3.org/2000/svg">
<path fill-rule="evenodd" clip-rule="evenodd" d="M3304.95 463.466L3855.78 185.386H4406.62L4957.46 0L5508.29 370.772L6059.13 185.386L6609.96 463.466V648.852H6059.13H5508.29H4957.46H4406.62H3855.78H3304.95V463.466Z" fill="#7D4E57"/>
<path fill-rule="evenodd" clip-rule="evenodd" d="M0 463.466L550.836 185.386H1101.67L1652.51 0L2203.34 370.772L2754.18 185.386L3305.02 463.466V648.852H2754.18H2203.34H1652.51H1101.67H550.836H0V463.466Z" fill="#7D4E57"/>
<path fill-rule="evenodd" clip-rule="evenodd" d="M6609.96 463.466L7160.8 185.386H7711.64L8262.47 0L8813.31 370.772L9364.14 185.386L9914.98 463.466V648.852H9364.14H8813.31H8262.47H7711.64H7160.8H6609.96V463.466Z" fill="#7D4E57"/>
<path fill-rule="evenodd" clip-rule="evenodd" d="M9914.98 463.466L10465.8 185.386H11016.7L11567.5 0L12118.3 370.772L12669.2 185.386L13220 463.466V648.852H12669.2H12118.3H11567.5H11016.7H10465.8H9914.98V463.466Z" fill="#7D4E57"/>
<path fill-rule="evenodd" clip-rule="evenodd" d="M13220 463.466L13770.8 185.386H14321.7L14872.5 0L15423.3 370.772L15974.2 185.386L16525 463.466V648.852H15974.2H15423.3H14872.5H14321.7H13770.8H13220V463.466Z" fill="#7D4E57"/>
<path fill-rule="evenodd" clip-rule="evenodd" d="M2030.37 649.061V506.763L2608.08 437.439L3045.83 225.816L3383.78 437.439L3722.26 331.628L4060.75 506.763V649.061H3722.26H3383.78H3045.83H2707.34H2368.86H2030.37Z" fill="#364156"/>
<path fill-rule="evenodd" clip-rule="evenodd" d="M0 649.061V506.763L577.706 437.439L1015.45 225.816L1353.4 437.439L1691.89 331.628L2030.37 506.763V649.061H1691.89H1353.4H1015.45H676.969H338.484H0Z" fill="#364156"/>
<path fill-rule="evenodd" clip-rule="evenodd" d="M8121.49 649.061V506.763L8699.2 437.439L9136.95 225.816L9474.9 437.439L9813.38 331.628L10151.9 506.763V649.061H9813.38H9474.9H9136.95H8798.46H8459.98H8121.49Z" fill="#364156"/>
<path fill-rule="evenodd" clip-rule="evenodd" d="M10151.9 649.061V506.763L10729.6 437.439L11167.3 225.816L11505.3 437.439L11843.8 331.628L12182.2 506.763V649.061H11843.8H11505.3H11167.3H10828.8H10490.4H10151.9Z" fill="#364156"/>
<path fill-rule="evenodd" clip-rule="evenodd" d="M12182.2 649.061V506.763L12759.9 437.439L13197.7 225.816L13535.6 437.439L13874.1 331.628L14212.6 506.763V649.061H13874.1H13535.6H13197.7H12859.2H12520.7H12182.2Z" fill="#364156"/>
<path fill-rule="evenodd" clip-rule="evenodd" d="M14215.6 649.061V506.763L14793.3 437.439L15231 225.816L15569 437.439L15907.5 331.628L16245.9 506.763V649.061H15907.5H15569H15231H14892.5H14554.1H14215.6Z" fill="#364156"/>
<path fill-rule="evenodd" clip-rule="evenodd" d="M4060.75 649.061V506.763L4638.45 437.439L5076.2 225.816L5414.15 437.439L5752.64 331.628L6091.12 506.763V649.061H5752.64H5414.15H5076.2H4737.72H4399.23H4060.75Z" fill="#364156"/>
<path fill-rule="evenodd" clip-rule="evenodd" d="M6091.12 649.061V506.763L6668.83 437.439L7106.57 225.816L7444.53 437.439L7783.01 331.628L8121.49 506.763V649.061H7783.01H7444.53H7106.57H6768.09H6429.6H6091.12Z" fill="#364156"/>
<path fill-rule="evenodd" clip-rule="evenodd" d="M16525 463.466L17075.8 185.386H17626.7L18177.5 0L18728.4 370.772L19279.2 185.386L19830 463.466V648.852H19279.2H18728.4H18177.5H17626.7H17075.8H16525V463.466Z" fill="#7D4E57"/>
<path fill-rule="evenodd" clip-rule="evenodd" d="M19547.9 463.466L20098.8 185.386H20649.6L21200.4 0L21751.3 370.772L22302.1 185.386L22853 463.466V648.852H22302.1H21751.3H21200.4H20649.6H20098.8H19547.9V463.466Z" fill="#7D4E57"/>
<path fill-rule="evenodd" clip-rule="evenodd" d="M22853 463.466L23403.8 185.386H23954.6L24505.5 0L25056.3 370.772L25607.1 185.386L26158 463.466V648.852H25607.1H25056.3H24505.5H23954.6H23403.8H22853V463.466Z" fill="#7D4E57"/>
<path fill-rule="evenodd" clip-rule="evenodd" d="M26158 463.466L26708.8 185.386H27259.6L27810.5 0L28361.3 370.772L28912.1 185.386L29463 463.466V648.852H28912.1H28361.3H27810.5H27259.6H26708.8H26158V463.466Z" fill="#7D4E57"/>
<path fill-rule="evenodd" clip-rule="evenodd" d="M29463 463.466L30013.8 185.386H30564.7L31115.5 0L31666.3 370.772L32217.2 185.386L32768 463.466V648.852H32217.2H31666.3H31115.5H30564.7H30013.8H29463V463.466Z" fill="#7D4E57"/>
<path fill-rule="evenodd" clip-rule="evenodd" d="M16245.9 649.062V506.764L16823.7 437.439L17261.4 225.816L17599.4 437.439L17937.8 331.628L18276.3 506.764V649.062H17937.8H17599.4H17261.4H16922.9H16584.4H16245.9Z" fill="#364156"/>
<path fill-rule="evenodd" clip-rule="evenodd" d="M18276.3 649.062V506.764L18854 437.439L19291.8 225.816L19629.7 437.439L19968.2 331.628L20306.7 506.764V649.062H19968.2H19629.7H19291.8H18953.3H18614.8H18276.3Z" fill="#364156"/>
<path fill-rule="evenodd" clip-rule="evenodd" d="M24367.4 649.062V506.764L24945.1 437.439L25382.9 225.816L25720.8 437.439L26059.3 331.628L26397.8 506.764V649.062H26059.3H25720.8H25382.9H25044.4H24705.9H24367.4Z" fill="#364156"/>
<path fill-rule="evenodd" clip-rule="evenodd" d="M26397.8 649.062V506.764L26975.5 437.439L27413.3 225.816L27751.2 437.439L28089.7 331.628L28428.2 506.764V649.062H28089.7H27751.2H27413.3H27074.8H26736.3H26397.8Z" fill="#364156"/>
<path fill-rule="evenodd" clip-rule="evenodd" d="M28428.2 649.062V506.764L29005.9 437.439L29443.6 225.816L29781.6 437.439L30120.1 331.628L30458.6 506.764V649.062H30120.1H29781.6H29443.6H29105.2H28766.7H28428.2Z" fill="#364156"/>
<path fill-rule="evenodd" clip-rule="evenodd" d="M30458.6 649.062V506.764L31036.3 437.439L31474 225.816L31812 437.439L32150.5 331.628L32488.9 506.764V649.062H32150.5H31812H31474H31135.5H30797H30458.6Z" fill="#364156"/>
<path fill-rule="evenodd" clip-rule="evenodd" d="M20306.7 649.062V506.764L20884.4 437.439L21322.1 225.816L21660.1 437.439L21998.6 331.628L22337.1 506.764V649.062H21998.6H21660.1H21322.1H20983.7H20645.2H20306.7Z" fill="#364156"/>
<path fill-rule="evenodd" clip-rule="evenodd" d="M22337.1 649.062V506.764L22914.8 437.439L23352.5 225.816L23690.5 437.439L24029 331.628L24367.4 506.764V649.062H24029H23690.5H23352.5H23014H22675.6H22337.1Z" fill="#364156"/>
</svg>
