<svg width="3634" height="348" viewBox="0 0 3634 348" fill="none" xmlns="http://www.w3.org/2000/svg">
<path fill-rule="evenodd" clip-rule="evenodd" d="M0 248.571L158.167 99.4286H316.333L474.5 0L632.667 198.857L790.833 99.4286L949 248.571V348H790.833H632.667H474.5H316.333H158.167H0V248.571Z" fill="#143642"/>
<path fill-rule="evenodd" clip-rule="evenodd" d="M868 248.571L1026.17 99.4286H1184.33L1342.5 0L1500.67 198.857L1658.83 99.4286L1817 248.571V348H1658.83H1500.67H1342.5H1184.33H1026.17H868V248.571Z" fill="#143642"/>
<path fill-rule="evenodd" clip-rule="evenodd" d="M1817 248.571L1975.17 99.4286H2133.33L2291.5 0L2449.67 198.857L2607.83 99.4286L2766 248.571V348H2607.83H2449.67H2291.5H2133.33H1975.17H1817V248.571Z" fill="#143642"/>
<path fill-rule="evenodd" clip-rule="evenodd" d="M2685 248.571L2843.17 99.4286H3001.33L3159.5 0L3317.67 198.857L3475.83 99.4286L3634 248.571V348H3475.83H3317.67H3159.5H3001.33H2843.17H2685V248.571Z" fill="#143642"/>
<path fill-rule="evenodd" clip-rule="evenodd" d="M0 348V271.681L165.882 234.5L291.576 121L388.616 234.5L485.808 177.75L583 271.681V348H485.808H388.616H291.576H194.384H97.1921H0Z" fill="#296852"/>
<path fill-rule="evenodd" clip-rule="evenodd" d="M0 348V271.681L165.882 234.5L291.576 121L388.616 234.5L485.808 177.75L583 271.681V348H485.808H388.616H291.576H194.384H97.1921H0Z" fill="#296852"/>
<path fill-rule="evenodd" clip-rule="evenodd" d="M0 348V271.681L165.882 234.5L291.576 121L388.616 234.5L485.808 177.75L583 271.681V348H485.808H388.616H291.576H194.384H97.1921H0Z" fill="#296852"/>
<path fill-rule="evenodd" clip-rule="evenodd" d="M583 348V271.681L748.882 234.5L874.576 121L971.616 234.5L1068.81 177.75L1166 271.681V348H1068.81H971.616H874.576H777.384H680.192H583Z" fill="#296852"/>
<path fill-rule="evenodd" clip-rule="evenodd" d="M2332 348V271.681L2497.88 234.5L2623.58 121L2720.62 234.5L2817.81 177.75L2915 271.681V348H2817.81H2720.62H2623.58H2526.38H2429.19H2332Z" fill="#296852"/>
<path fill-rule="evenodd" clip-rule="evenodd" d="M2915 348V271.681L3080.88 234.5L3206.58 121L3303.62 234.5L3400.81 177.75L3498 271.681V348H3400.81H3303.62H3206.58H3109.38H3012.19H2915Z" fill="#296852"/>
<path fill-rule="evenodd" clip-rule="evenodd" d="M1166 348V271.681L1331.88 234.5L1457.58 121L1554.62 234.5L1651.81 177.75L1749 271.681V348H1651.81H1554.62H1457.58H1360.38H1263.19H1166Z" fill="#296852"/>
<path fill-rule="evenodd" clip-rule="evenodd" d="M1749 348V271.681L1914.88 234.5L2040.58 121L2137.62 234.5L2234.81 177.75L2332 271.681V348H2234.81H2137.62H2040.58H1943.38H1846.19H1749Z" fill="#296852"/>
</svg>
